<svg xmlns="http://www.w3.org/2000/svg" width="128" height="128" viewBox="0 0 100 100" role="img" aria-label="Cognera figure"><circle cx="50" cy="50" r="6" fill="#111827" /><g transform="translate(50 50) rotate(0) translate(0 -30)"><g transform="translate(50 50) rotate(0) scale(0.220) translate(-50 -50)"><polygon points="50.00,18.00 77.71,66.00 22.29,66.00" fill="#7C3AED" stroke="#0f172a" stroke-width="3" /></g></g><g transform="translate(50 50) rotate(40) translate(0 -30)"><g transform="translate(50 50) rotate(0) scale(0.220) translate(-50 -50)"><polygon points="50.00,18.00 77.71,66.00 22.29,66.00" fill="#7C3AED" stroke="#0f172a" stroke-width="3" /></g></g><g transform="translate(50 50) rotate(80) translate(0 -30)"><g transform="translate(50 50) rotate(0) scale(0.220) translate(-50 -50)"><polygon points="50.00,18.00 77.71,66.00 22.29,66.00" fill="#7C3AED" stroke="#0f172a" stroke-width="3" /></g></g><g transform="translate(50 50) rotate(120) translate(0 -30)"><g transform="translate(50 50) rotate(0) scale(0.220) translate(-50 -50)"><polygon points="50.00,18.00 77.71,66.00 22.29,66.00" fill="#7C3AED" stroke="#0f172a" stroke-width="3" /></g></g><g transform="translate(50 50) rotate(160) translate(0 -30)"><g transform="translate(50 50) rotate(0) scale(0.220) translate(-50 -50)"><polygon points="50.00,18.00 77.71,66.00 22.29,66.00" fill="#7C3AED" stroke="#0f172a" stroke-width="3" /></g></g><g transform="translate(50 50) rotate(200) translate(0 -30)"><g transform="translate(50 50) rotate(0) scale(0.220) translate(-50 -50)"><polygon points="50.00,18.00 77.71,66.00 22.29,66.00" fill="#7C3AED" stroke="#0f172a" stroke-width="3" /></g></g><g transform="translate(50 50) rotate(240) translate(0 -30)"><g transform="translate(50 50) rotate(0) scale(0.220) translate(-50 -50)"><polygon points="50.00,18.00 77.71,66.00 22.29,66.00" fill="#7C3AED" stroke="#0f172a" stroke-width="3" /></g></g><g transform="translate(50 50) rotate(280) translate(0 -30)"><g transform="translate(50 50) rotate(0) scale(0.220) translate(-50 -50)"><polygon points="50.00,18.00 77.71,66.00 22.29,66.00" fill="#7C3AED" stroke="#0f172a" stroke-width="3" /></g></g><g transform="translate(50 50) rotate(320) translate(0 -30)"><g transform="translate(50 50) rotate(0) scale(0.220) translate(-50 -50)"><polygon points="50.00,18.00 77.71,66.00 22.29,66.00" fill="#7C3AED" stroke="#0f172a" stroke-width="3" /></g></g></svg>